<svg width="189" height="29" viewBox="0 0 189 29" fill="none" xmlns="http://www.w3.org/2000/svg">
<path d="M0 14.8981C0 5.40807 5.92609 0 14.2765 0C17.0945 0 19.8296 0.600897 21.9431 1.84413L23.1656 10.5468C21.0521 9.13778 18.9179 8.70265 16.7215 8.70265C12.2044 8.70265 9.65579 10.5882 9.65579 14.3594C9.65579 18.7314 13.0125 20.0575 16.8251 20.0575C18.9801 20.0575 21.0107 19.6224 23.1449 18.462L22.2539 27.1647C19.9954 28.1178 17.4882 28.7602 14.4215 28.7602C7.45941 28.7602 0 25.507 0 14.9188L0 14.8981Z" fill="#F05223"/>
<path d="M26.75 0.414368H35.9914V20.2025H44.6112V28.1592H26.75V0.414368Z" fill="#F05223"/>
<path d="M65.4753 25.2584H57.2285L56.5654 28.1385H46.5781L55.115 0.414368H67.2573L76.8716 28.1592H66.2627L65.4753 25.2791V25.2584ZM64.0041 19.726L60.9997 8.51612L58.451 19.726H64.0041Z" fill="#F05223"/>
<path d="M79.5898 0.414368H91.4213C99.1915 0.414368 103.812 4.9729 103.812 11.3341C103.812 17.6953 99.3366 22.6476 91.4213 22.6476H88.8312V28.1592H79.5898V0.414368ZM90.5303 15.126C93.1618 15.126 94.2393 14.2764 94.2393 11.7693C94.2393 9.44854 93.0997 8.37107 90.5303 8.37107H88.8312V15.1467H90.5303V15.126Z" fill="#F05223"/>
<path d="M121.836 28.1592H107.332V0.414368H120.945C128.426 0.414368 131.741 3.52246 131.741 7.9981C131.741 10.9611 130.415 13.0954 126.975 14.2557C131.202 15.1053 132.818 17.3224 132.818 20.5133C132.818 25.2169 128.902 28.18 121.836 28.18V28.1592ZM119.536 11.9557C121.899 11.9557 122.872 11.3341 122.872 9.84224C122.872 8.35035 121.691 7.66657 119.391 7.66657H116.573V11.9557H119.536ZM120.013 20.7827C122.334 20.7827 123.163 20.1196 123.163 18.6278C123.163 17.0737 121.981 16.4728 119.682 16.4728H116.573V20.762H120.013V20.7827Z" fill="#C5D92D"/>
<path d="M153.21 25.2584H144.963L144.3 28.1385H134.312L142.849 0.414368H154.992L164.606 28.1592H153.997L153.21 25.2791V25.2584ZM151.739 19.726L148.734 8.51612L146.185 19.726H151.739Z" fill="#C5D92D"/>
<path d="M164.895 14.8981C164.895 5.38735 170.821 0 179.171 0C181.989 0 184.724 0.600897 186.838 1.84413L188.06 10.5468C185.947 9.13778 183.812 8.70265 181.616 8.70265C177.099 8.70265 174.55 10.5882 174.55 14.3594C174.55 18.7314 177.907 20.0575 181.72 20.0575C183.875 20.0575 185.905 19.6224 188.039 18.462L187.148 27.1647C184.89 28.1178 182.383 28.7602 179.316 28.7602C172.354 28.7602 164.895 25.507 164.895 14.9188V14.8981Z" fill="#C5D92D"/>
</svg>
